<?xml version="1.0" encoding="UTF-8" standalone="no"?>
<!DOCTYPE svg PUBLIC "-//W3C//DTD SVG 1.1//EN" "http://www.w3.org/Graphics/SVG/1.1/DTD/svg11.dtd">
<svg width="100%" height="100%" viewBox="0 0 1188 456" version="1.1" xmlns="http://www.w3.org/2000/svg" xmlns:xlink="http://www.w3.org/1999/xlink" xml:space="preserve" style="fill-rule:evenodd;clip-rule:evenodd;stroke-linejoin:round;stroke-miterlimit:2;">
    <g transform="matrix(0.795339,0,0,0.777166,-236.342,-2.82282)">
        <circle cx="657.073" cy="195.502" r="151.81" style="fill:rgb(166,166,166);"/>
    </g>
    <g transform="matrix(0.795339,0,0,0.777166,-78.6629,-6.0552)">
        <circle cx="657.073" cy="195.502" r="151.81" style="fill:rgb(166,166,166);"/>
    </g>
    <g transform="matrix(0.678976,-0.651723,0.675545,0.672,-103.115,451.731)">
        <path d="M658.46,91.236C658.46,54.666 628.408,24.976 591.393,24.976L457.259,24.976C420.244,24.976 390.193,54.666 390.193,91.236L390.193,226.983C390.193,263.553 420.244,293.243 457.259,293.243L591.393,293.243C628.408,293.243 658.46,263.553 658.46,226.983L658.46,91.236Z" style="fill:rgb(166,166,166);"/>
    </g>
    <g transform="matrix(0.338073,0,0,0.710345,-59.3978,-57.0614)">
        <path d="M266.375,167.754C254.243,167.754 243.989,169.816 235.612,173.94C226.946,177.927 222.613,182.807 222.613,188.581C222.613,194.355 226.946,199.305 235.612,203.429C243.989,207.416 254.243,209.409 266.375,209.409L385.964,209.409L385.964,448.826C385.964,454.6 390.153,459.549 398.53,463.673C407.195,467.798 417.594,469.86 429.727,469.86C441.859,469.86 452.113,467.798 460.49,463.673C469.156,459.549 473.489,454.6 473.489,448.826L473.489,209.409L592.645,209.409C604.777,209.409 615.176,207.416 623.842,203.429C632.508,199.305 636.84,194.355 636.84,188.581C636.84,182.807 632.508,177.927 623.842,173.94C615.176,169.816 604.777,167.754 592.645,167.754L266.375,167.754Z" style="fill:white;fill-rule:nonzero;"/>
        <path d="M935.812,252.302C923.68,251.202 911.404,250.652 898.982,250.652C851.898,250.652 809.435,257.732 771.594,271.893L771.594,271.48C771.594,265.706 767.406,260.826 759.029,256.839C750.363,252.714 739.964,250.652 727.832,250.652C715.7,250.652 705.445,252.714 697.068,256.839C688.402,260.826 684.069,265.706 684.069,271.48L684.069,449.032C684.069,454.806 688.402,459.686 697.068,463.673C705.445,467.798 715.7,469.86 727.832,469.86C739.964,469.86 750.363,467.798 759.029,463.673C767.406,459.686 771.594,454.806 771.594,449.032L771.594,360.153C771.883,341.456 784.449,325.509 809.291,312.311C834.133,298.976 864.03,292.308 898.982,292.308C905.915,292.308 912.848,292.652 919.781,293.339C931.624,294.439 942.601,293.339 952.711,290.04C962.532,286.74 968.598,282.272 970.909,276.636C973.22,270.999 970.909,265.775 963.976,260.963C957.044,256.151 947.656,253.264 935.812,252.302Z" style="fill:white;fill-rule:nonzero;"/>
    </g>
    <g transform="matrix(0.898894,0,0,0.710345,263.218,-59.8342)">
        <path d="M255.924,250.652C251.361,250.652 247.504,252.646 244.354,256.633C241.094,260.757 239.465,265.706 239.465,271.48L239.465,448.826C239.465,454.6 241.094,459.549 244.354,463.673C247.504,467.798 251.361,469.86 255.924,469.86C260.487,469.86 264.398,467.798 267.657,463.673C270.807,459.549 272.383,454.6 272.383,448.826L272.383,271.48C272.383,265.706 270.807,260.757 267.657,256.633C264.398,252.646 260.487,250.652 255.924,250.652ZM237.835,188.581C237.835,194.355 239.465,199.236 242.724,203.223C245.983,207.347 249.894,209.409 254.457,209.409L256.902,209.409C261.464,209.409 265.375,207.347 268.635,203.223C271.894,199.236 273.524,194.355 273.524,188.581C273.524,182.807 271.894,177.858 268.635,173.734C265.375,169.747 261.464,167.754 256.902,167.754L254.457,167.754C249.894,167.754 245.983,169.747 242.724,173.734C239.465,177.858 237.835,182.807 237.835,188.581Z" style="fill:white;fill-rule:nonzero;"/>
        <path d="M390.203,250.652C372.495,250.652 356.525,257.732 342.293,271.893L342.293,271.48C342.293,265.706 340.718,260.757 337.567,256.633C334.308,252.646 330.397,250.652 325.834,250.652C321.271,250.652 317.414,252.646 314.264,256.633C311.004,260.757 309.375,265.706 309.375,271.48L309.375,448.826C309.375,454.6 311.004,459.549 314.264,463.673C317.414,467.798 321.271,469.86 325.834,469.86C330.397,469.86 334.308,467.798 337.567,463.673C340.718,459.549 342.293,454.6 342.293,448.826L342.293,360.153C342.293,341.456 347.019,325.44 356.47,312.105C365.814,298.907 377.058,292.308 390.203,292.308C403.349,292.308 414.593,298.976 423.936,312.311C433.279,325.509 437.951,341.456 437.951,360.153L437.951,448.826C437.951,454.6 439.58,459.549 442.84,463.673C446.099,467.798 450.01,469.86 454.573,469.86C459.136,469.86 462.992,467.798 466.143,463.673C469.402,459.549 471.032,454.6 471.032,448.826L471.032,360.153C471.032,329.908 463.101,304.062 447.24,282.616C431.487,261.307 412.475,250.652 390.203,250.652Z" style="fill:white;fill-rule:nonzero;"/>
        <path d="M652.244,167.754C647.681,167.754 643.77,169.816 640.511,173.94C637.36,177.927 635.785,182.807 635.785,188.581L635.785,360.153C635.785,378.85 630.516,394.866 619.978,408.201C609.548,421.399 596.946,427.998 582.171,427.998C567.287,427.998 554.631,421.399 544.201,408.201C533.663,394.866 528.394,378.85 528.394,360.153C528.394,341.456 533.663,325.509 544.201,312.311C554.631,298.976 567.287,292.308 582.171,292.308C589.993,292.308 597.489,294.37 604.66,298.494C608.788,300.969 612.971,301.244 617.208,299.319C621.553,297.257 624.649,293.614 626.496,288.39C628.452,283.166 628.669,277.873 627.148,272.511C625.519,267.15 622.64,263.231 618.511,260.757C606.995,254.021 594.882,250.652 582.171,250.652C558.27,250.652 537.846,261.307 520.898,282.616C503.95,304.062 495.476,329.908 495.476,360.153C495.476,390.398 503.95,416.244 520.898,437.69C537.846,459.137 558.27,469.86 582.171,469.86C605.963,469.86 626.333,459.137 643.281,437.69C660.229,416.244 668.703,390.398 668.703,360.153L668.703,188.581C668.703,182.807 667.073,177.927 663.814,173.94C660.664,169.816 656.807,167.754 652.244,167.754Z" style="fill:white;fill-rule:nonzero;"/>
        <path d="M860.671,321.178L860.671,320.766C854.261,299.732 843.614,282.753 828.73,269.83C813.847,257.045 797.551,250.652 779.842,250.652C755.941,250.652 735.517,261.307 718.569,282.616C701.621,304.062 693.147,329.908 693.147,360.153C693.147,390.398 701.621,416.244 718.569,437.69C735.517,459.137 755.941,469.86 779.842,469.86C807.98,469.86 830.74,455.768 848.123,427.586C850.947,423.049 852.088,417.893 851.545,412.119C850.893,406.345 848.775,401.74 845.189,398.303C841.604,394.728 837.585,393.285 833.13,393.972C828.567,394.66 824.874,397.272 822.049,401.809C811.294,419.268 797.225,427.998 779.842,427.998C764.959,427.998 752.302,421.399 741.872,408.201C731.334,394.866 726.065,378.85 726.065,360.153C726.065,341.456 731.334,325.509 741.872,312.311C752.302,298.976 764.959,292.308 779.842,292.308C797.007,292.308 811.022,300.969 821.886,318.291L747.087,356.235C742.85,358.297 739.863,362.009 738.124,367.37C736.277,372.732 736.223,378.025 737.961,383.249C740.677,392.048 745.783,396.447 753.28,396.447C755.344,396.447 757.354,395.966 759.309,395.003L851.545,348.192C855.782,346.13 858.77,342.418 860.508,337.057C862.355,331.695 862.409,326.402 860.671,321.178Z" style="fill:white;fill-rule:nonzero;"/>
        <path d="M982.239,252.302C977.676,251.202 973.059,250.652 968.388,250.652C950.679,250.652 934.709,257.732 920.477,271.893L920.477,271.48C920.477,265.706 918.902,260.826 915.751,256.839C912.492,252.714 908.581,250.652 904.018,250.652C899.455,250.652 895.599,252.714 892.448,256.839C889.189,260.826 887.559,265.706 887.559,271.48L887.559,449.032C887.559,454.806 889.189,459.686 892.448,463.673C895.599,467.798 899.455,469.86 904.018,469.86C908.581,469.86 912.492,467.798 915.751,463.673C918.902,459.686 920.477,454.806 920.477,449.032L920.477,360.153C920.586,341.456 925.312,325.509 934.655,312.311C943.998,298.976 955.242,292.308 968.388,292.308C970.995,292.308 973.602,292.652 976.21,293.339C980.664,294.439 984.792,293.339 988.595,290.04C992.289,286.74 994.57,282.272 995.439,276.636C996.308,270.999 995.439,265.775 992.832,260.963C990.224,256.151 986.694,253.264 982.239,252.302Z" style="fill:white;fill-rule:nonzero;"/>
    </g>
    <g transform="matrix(-0.0434708,-0.147535,0.539526,-0.158969,273.7,486.289)">
        <path d="M1621.31,107.466C1621.31,96.754 1589.51,88.057 1550.33,88.057L992.16,88.057C952.986,88.057 921.181,96.754 921.181,107.466C921.181,118.179 952.986,126.876 992.16,126.876L1550.33,126.876C1589.51,126.876 1621.31,118.179 1621.31,107.466Z" style="fill:white;"/>
    </g>
    <g transform="matrix(0.127173,-0.310883,0.812434,0.332341,83.8356,588.632)">
        <path d="M1621.31,107.466C1621.31,96.754 1598.58,88.057 1570.59,88.057L971.904,88.057C943.909,88.057 921.181,96.754 921.181,107.466C921.181,118.179 943.909,126.876 971.904,126.876L1570.59,126.876C1598.58,126.876 1621.31,118.179 1621.31,107.466Z" style="fill:white;"/>
    </g>
    <g transform="matrix(-0.169238,-0.443046,0.870253,-0.332425,545.612,877.164)">
        <path d="M1621.31,107.466C1621.31,96.754 1604.23,88.057 1583.18,88.057L959.306,88.057C938.264,88.057 921.181,96.754 921.181,107.466C921.181,118.179 938.264,126.876 959.306,126.876L1583.18,126.876C1604.23,126.876 1621.31,118.179 1621.31,107.466Z" style="fill:white;"/>
    </g>
    <g transform="matrix(0.0501225,-0.164103,0.579403,0.176969,371.961,558.562)">
        <path d="M1621.31,107.466C1621.31,96.754 1590.6,88.057 1552.78,88.057L989.71,88.057C951.888,88.057 921.181,96.754 921.181,107.466C921.181,118.179 951.888,126.876 989.71,126.876L1552.78,126.876C1590.6,126.876 1621.31,118.179 1621.31,107.466Z" style="fill:white;"/>
    </g>
    <g transform="matrix(0.0487804,-0.142085,0.572998,0.196721,125.925,439.419)">
        <path d="M1621.31,107.466C1621.31,96.754 1586.24,88.057 1543.04,88.057L999.455,88.057C956.255,88.057 921.181,96.754 921.181,107.466C921.181,118.179 956.255,126.876 999.455,126.876L1543.04,126.876C1586.24,126.876 1621.31,118.179 1621.31,107.466Z" style="fill:white;"/>
    </g>
    <g transform="matrix(-0.266839,0.000629205,-0.00135522,-0.574734,492.496,384.229)">
        <path d="M1621.31,107.466C1621.31,96.754 1602.58,88.057 1579.5,88.057L962.986,88.057C939.913,88.057 921.181,96.754 921.181,107.466C921.181,118.179 939.913,126.876 962.986,126.876L1579.5,126.876C1602.58,126.876 1621.31,118.179 1621.31,107.466Z" style="fill:white;"/>
    </g>
    <g transform="matrix(-0.89418,0.00210847,-0.00135522,-0.574734,1951.99,379.836)">
        <path d="M1621.31,107.466C1621.31,96.754 1615.72,88.057 1608.83,88.057L933.656,88.057C926.771,88.057 921.181,96.754 921.181,107.466C921.181,118.179 926.771,126.876 933.656,126.876L1608.83,126.876C1615.72,126.876 1621.31,118.179 1621.31,107.466Z" style="fill:white;"/>
    </g>
</svg>
