<?xml version="1.0" encoding="UTF-8" standalone="no"?>
<!DOCTYPE svg PUBLIC "-//W3C//DTD SVG 1.1//EN" "http://www.w3.org/Graphics/SVG/1.1/DTD/svg11.dtd">
<svg width="100%" height="100%" viewBox="0 0 1179 448" version="1.1" xmlns="http://www.w3.org/2000/svg" xmlns:xlink="http://www.w3.org/1999/xlink" xml:space="preserve" style="fill-rule:evenodd;clip-rule:evenodd;stroke-linecap:round;stroke-linejoin:round;stroke-miterlimit:1.5;">
    <g id="Plan-de-travail1" serif:id="Plan de travail1" transform="matrix(0.922693,0,0,0.785888,-328.047,-174.328)">
        <rect x="355.533" y="221.823" width="1276.87" height="569.807" style="fill:none;"/>
        <clipPath id="_clip1">
            <rect x="355.533" y="221.823" width="1276.87" height="569.807"/>
        </clipPath>
        <g clip-path="url(#_clip1)">
            <g transform="matrix(1.08378,0,0,1.27245,-113.354,-189.579)">
                <rect x="-9.089" y="-6.932" width="1936.79" height="1092.48" style="fill:rgb(3,0,0);stroke:rgb(235,235,235);stroke-width:1px;"/>
            </g>
            <g transform="matrix(0.861976,0,0,0.988902,-144.399,56.4521)">
                <g transform="matrix(1,0,0,1,282.824,163.594)">
                    <circle cx="657.073" cy="195.502" r="151.81" style="fill:rgb(229,11,11);"/>
                </g>
                <g transform="matrix(1,0,0,1,481.078,159.435)">
                    <circle cx="657.073" cy="195.502" r="151.81" style="fill:rgb(229,11,11);"/>
                </g>
                <g transform="matrix(0.853694,-0.838589,0.84938,0.864679,450.334,748.48)">
                    <path d="M658.46,91.236C658.46,54.666 628.408,24.976 591.393,24.976L457.259,24.976C420.244,24.976 390.193,54.666 390.193,91.236L390.193,226.983C390.193,263.553 420.244,293.243 457.259,293.243L591.393,293.243C628.408,293.243 658.46,263.553 658.46,226.983L658.46,91.236Z" style="fill:rgb(229,11,11);"/>
                </g>
            </g>
            <g transform="matrix(1.08378,0,0,1.27245,134.567,87.3862)">
                <text x="218.28px" y="382.353px" style="font-family:'GeomaRegularDemo', 'Geoma Regular Demo';font-size:300px;fill:rgb(246,240,240);">Tr</text>
            </g>
            <g transform="matrix(1.08378,0,0,1.27245,616.886,83.858)">
                <text x="218.28px" y="382.353px" style="font-family:'GeomaRegularDemo', 'Geoma Regular Demo';font-size:300px;fill:rgb(246,240,240);">inder</text>
            </g>
            <g transform="matrix(1.08378,0,0,1.27245,-364.28,-170.174)">
                <g transform="matrix(-0.0434708,-0.147535,0.539526,-0.158969,937.865,794.355)">
                    <path d="M1621.31,107.466C1621.31,96.754 1589.51,88.057 1550.33,88.057L992.16,88.057C952.986,88.057 921.181,96.754 921.181,107.466C921.181,118.179 952.986,126.876 992.16,126.876L1550.33,126.876C1589.51,126.876 1621.31,118.179 1621.31,107.466Z" style="fill:rgb(248,248,248);"/>
                </g>
                <g transform="matrix(0.127173,-0.310883,0.812434,0.332341,748.001,896.698)">
                    <path d="M1621.31,107.466C1621.31,96.754 1598.58,88.057 1570.59,88.057L971.904,88.057C943.909,88.057 921.181,96.754 921.181,107.466C921.181,118.179 943.909,126.876 971.904,126.876L1570.59,126.876C1598.58,126.876 1621.31,118.179 1621.31,107.466Z" style="fill:rgb(248,248,248);"/>
                </g>
                <g transform="matrix(-0.169238,-0.443046,0.870253,-0.332425,1209.78,1185.23)">
                    <path d="M1621.31,107.466C1621.31,96.754 1604.23,88.057 1583.18,88.057L959.306,88.057C938.264,88.057 921.181,96.754 921.181,107.466C921.181,118.179 938.264,126.876 959.306,126.876L1583.18,126.876C1604.23,126.876 1621.31,118.179 1621.31,107.466Z" style="fill:rgb(248,248,248);"/>
                </g>
                <g transform="matrix(0.0501225,-0.164103,0.579403,0.176969,1036.13,866.627)">
                    <path d="M1621.31,107.466C1621.31,96.754 1590.6,88.057 1552.78,88.057L989.71,88.057C951.888,88.057 921.181,96.754 921.181,107.466C921.181,118.179 951.888,126.876 989.71,126.876L1552.78,126.876C1590.6,126.876 1621.31,118.179 1621.31,107.466Z" style="fill:rgb(248,248,248);"/>
                </g>
                <g transform="matrix(0.0487804,-0.142085,0.572998,0.196721,790.09,747.485)">
                    <path d="M1621.31,107.466C1621.31,96.754 1586.24,88.057 1543.04,88.057L999.455,88.057C956.255,88.057 921.181,96.754 921.181,107.466C921.181,118.179 956.255,126.876 999.455,126.876L1543.04,126.876C1586.24,126.876 1621.31,118.179 1621.31,107.466Z" style="fill:rgb(248,248,248);"/>
                </g>
                <g transform="matrix(-0.266839,0.000629205,-0.00135522,-0.574734,1156.66,692.295)">
                    <path d="M1621.31,107.466C1621.31,96.754 1602.58,88.057 1579.5,88.057L962.986,88.057C939.913,88.057 921.181,96.754 921.181,107.466C921.181,118.179 939.913,126.876 962.986,126.876L1579.5,126.876C1602.58,126.876 1621.31,118.179 1621.31,107.466Z" style="fill:rgb(248,248,248);"/>
                </g>
                <g transform="matrix(-0.89418,0.00210847,-0.00135522,-0.574734,2616.15,687.901)">
                    <path d="M1621.31,107.466C1621.31,96.754 1615.72,88.057 1608.83,88.057L933.656,88.057C926.771,88.057 921.181,96.754 921.181,107.466C921.181,118.179 926.771,126.876 933.656,126.876L1608.83,126.876C1615.72,126.876 1621.31,118.179 1621.31,107.466Z" style="fill:rgb(248,248,248);"/>
                </g>
            </g>
        </g>
    </g>
</svg>
